<mxfile host="app.diagrams.net" modified="2024-01-25T04:22:32.291Z" agent="Mozilla/5.0 (X11; Linux x86_64; rv:102.0) Gecko/20100101 Firefox/102.0" version="23.0.1" etag="VKWwrAtHkpI-2XQQ59xx" type="github">
  <diagram name="Page-1" id="3ogfMLTMXZx0mC2qGElA">
    <mxGraphModel>
      <root>
        <mxCell id="0" />
        <mxCell id="1" parent="0" />
      </root>
    </mxGraphModel>
  </diagram>
</mxfile>
